<svg width="1208" height="88" viewBox="0 0 1208 88" fill="none" xmlns="http://www.w3.org/2000/svg">
<path d="M52.127 41H105.407V86H89.447L88.487 72.8C84.327 77.36 79.047 80.92 72.647 83.48C66.247 85.96 58.727 87.2 50.087 87.2C39.767 87.2 30.847 85.52 23.327 82.16C15.887 78.8 10.167 73.92 6.16703 67.52C2.16703 61.04 0.167031 53.2 0.167031 44C0.167031 30.08 4.76703 19.4 13.967 11.96C23.167 4.52 36.407 0.799995 53.687 0.799995C70.087 0.799995 82.647 3.79999 91.367 9.79999C100.087 15.72 104.767 24.04 105.407 34.76H83.447C82.647 30.52 80.007 26.84 75.527 23.72C71.127 20.52 63.847 18.92 53.687 18.92C41.287 18.92 32.847 21.48 28.367 26.6C23.967 31.64 21.767 37.6 21.767 44.48C21.767 51.44 23.967 57.52 28.367 62.72C32.847 67.92 41.287 70.52 53.687 70.52C60.167 70.52 65.607 69.72 70.007 68.12C74.487 66.52 77.807 64.52 79.967 62.12C82.127 59.72 83.287 57.36 83.447 55.04H52.127V41ZM135.467 86H113.867V1.99999H135.467V86ZM253.279 1.99999V86H223.879L166.639 23V86H145.039V1.99999H174.319L231.679 65.12V1.99999H253.279ZM282.04 57.08C282.04 60.2 283.04 62.68 285.04 64.52C287.04 66.36 290.52 67.76 295.48 68.72C300.52 69.6 307.56 70.04 316.6 70.04C324.2 70.04 330.12 69.76 334.36 69.2C338.6 68.56 341.6 67.6 343.36 66.32C345.2 64.96 346.12 63.16 346.12 60.92C346.12 58.52 345.32 56.76 343.72 55.64C342.2 54.44 339.28 53.56 334.96 53C330.64 52.44 323.68 51.92 314.08 51.44C301.44 50.88 291.44 49.72 284.08 47.96C276.8 46.2 271.44 43.52 268 39.92C264.64 36.32 262.96 31.4 262.96 25.16C262.96 16.28 267.16 10 275.56 6.32C284.04 2.64 296.6 0.799995 313.24 0.799995C329.72 0.799995 342.32 3.07999 351.04 7.63999C359.76 12.2 364.12 19.48 364.12 29.48H342.52C342.52 26.44 341.44 24.08 339.28 22.4C337.2 20.72 333.88 19.56 329.32 18.92C324.84 18.28 318.68 17.96 310.84 17.96C303.72 17.96 298.28 18.24 294.52 18.8C290.76 19.28 288.16 20.12 286.72 21.32C285.28 22.44 284.56 24.08 284.56 26.24C284.56 28.48 285.32 30.16 286.84 31.28C288.36 32.32 291.12 33.16 295.12 33.8C299.12 34.36 305.44 34.88 314.08 35.36C327.44 36.08 337.64 37.04 344.68 38.24C351.8 39.44 357.4 41.72 361.48 45.08C365.64 48.36 367.72 53.4 367.72 60.2C367.72 67.4 365.6 72.96 361.36 76.88C357.12 80.8 351.24 83.52 343.72 85.04C336.2 86.48 326.76 87.2 315.4 87.2C303.16 87.2 293.04 86.36 285.04 84.68C277.12 82.92 271.04 79.84 266.8 75.44C262.56 71.04 260.44 64.92 260.44 57.08H282.04ZM397.147 19.16V36.2H464.347V51.8H397.147V68.84H464.347V86H375.547V1.99999H464.347V19.16H397.147ZM580.466 1.99999V86H551.066L493.826 23V86H472.226V1.99999H501.506L558.866 65.12V1.99999H580.466ZM639.705 41H692.985V86H677.025L676.065 72.8C671.905 77.36 666.625 80.92 660.225 83.48C653.825 85.96 646.305 87.2 637.665 87.2C627.345 87.2 618.425 85.52 610.905 82.16C603.465 78.8 597.745 73.92 593.745 67.52C589.745 61.04 587.745 53.2 587.745 44C587.745 30.08 592.345 19.4 601.545 11.96C610.745 4.52 623.985 0.799995 641.265 0.799995C657.665 0.799995 670.225 3.79999 678.945 9.79999C687.665 15.72 692.345 24.04 692.985 34.76H671.025C670.225 30.52 667.585 26.84 663.105 23.72C658.705 20.52 651.425 18.92 641.265 18.92C628.865 18.92 620.425 21.48 615.945 26.6C611.545 31.64 609.345 37.6 609.345 44.48C609.345 51.44 611.545 57.52 615.945 62.72C620.425 67.92 628.865 70.52 641.265 70.52C647.745 70.52 653.185 69.72 657.585 68.12C662.065 66.52 665.385 64.52 667.545 62.12C669.705 59.72 670.865 57.36 671.025 55.04H639.705V41ZM777.392 57.08C777.392 60.2 778.392 62.68 780.392 64.52C782.392 66.36 785.872 67.76 790.832 68.72C795.872 69.6 802.912 70.04 811.952 70.04C819.552 70.04 825.472 69.76 829.712 69.2C833.952 68.56 836.952 67.6 838.712 66.32C840.552 64.96 841.472 63.16 841.472 60.92C841.472 58.52 840.672 56.76 839.072 55.64C837.552 54.44 834.632 53.56 830.312 53C825.992 52.44 819.032 51.92 809.432 51.44C796.792 50.88 786.792 49.72 779.432 47.96C772.152 46.2 766.792 43.52 763.352 39.92C759.992 36.32 758.312 31.4 758.312 25.16C758.312 16.28 762.512 10 770.912 6.32C779.392 2.64 791.952 0.799995 808.592 0.799995C825.072 0.799995 837.672 3.07999 846.392 7.63999C855.112 12.2 859.472 19.48 859.472 29.48H837.872C837.872 26.44 836.792 24.08 834.632 22.4C832.552 20.72 829.232 19.56 824.672 18.92C820.192 18.28 814.032 17.96 806.192 17.96C799.072 17.96 793.632 18.24 789.872 18.8C786.112 19.28 783.512 20.12 782.072 21.32C780.632 22.44 779.912 24.08 779.912 26.24C779.912 28.48 780.672 30.16 782.192 31.28C783.712 32.32 786.472 33.16 790.472 33.8C794.472 34.36 800.792 34.88 809.432 35.36C822.792 36.08 832.992 37.04 840.032 38.24C847.152 39.44 852.752 41.72 856.832 45.08C860.992 48.36 863.072 53.4 863.072 60.2C863.072 67.4 860.952 72.96 856.712 76.88C852.472 80.8 846.592 83.52 839.072 85.04C831.552 86.48 822.112 87.2 810.752 87.2C798.512 87.2 788.392 86.36 780.392 84.68C772.472 82.92 766.392 79.84 762.152 75.44C757.912 71.04 755.792 64.92 755.792 57.08H777.392ZM966.219 20.12H925.419V86H903.819V20.12H863.019V1.99999H966.219V20.12ZM1071.48 32.84C1071.48 39.56 1069.84 45.4 1066.56 50.36C1063.36 55.24 1058.92 58.8 1053.24 61.04L1068.72 86H1043.28L1029.72 63.56H994.92V86H973.32V1.99999H1039.32C1045.64 1.99999 1051.24 3.27999 1056.12 5.83999C1061 8.4 1064.76 12 1067.4 16.64C1070.12 21.28 1071.48 26.68 1071.48 32.84ZM994.92 45.44H1033.32C1036.44 45.44 1039.12 45.24 1041.36 44.84C1043.6 44.36 1045.56 43.2 1047.24 41.36C1049 39.52 1049.88 36.68 1049.88 32.84C1049.88 28.92 1049 26.04 1047.24 24.2C1045.56 22.36 1043.6 21.24 1041.36 20.84C1039.12 20.36 1036.44 20.12 1033.32 20.12H994.92V45.44ZM1100.15 86H1078.55V1.99999H1100.15V86ZM1175.73 1.99999C1182.05 1.99999 1187.65 3.27999 1192.53 5.83999C1197.41 8.4 1201.17 12 1203.81 16.64C1206.53 21.28 1207.89 26.68 1207.89 32.84C1207.89 39 1206.53 44.4 1203.81 49.04C1201.17 53.68 1197.41 57.28 1192.53 59.84C1187.65 62.32 1182.05 63.56 1175.73 63.56H1131.33V86H1109.73V1.99999H1175.73ZM1169.73 45.44C1172.85 45.44 1175.53 45.24 1177.77 44.84C1180.01 44.36 1181.97 43.2 1183.65 41.36C1185.41 39.52 1186.29 36.68 1186.29 32.84C1186.29 28.92 1185.41 26.04 1183.65 24.2C1181.97 22.36 1180.01 21.24 1177.77 20.84C1175.53 20.36 1172.85 20.12 1169.73 20.12H1131.33V45.44H1169.73Z" fill="#FAFAFA"/>
</svg>
